<svg viewBox="0 0 200 200" xmlns="http://www.w3.org/2000/svg">
  <path d="M30.9,-60.2C38.7,-49.1,42.8,-38.1,48.3,-28.1C53.9,-18.1,60.8,-9,60.3,-0.3C59.9,8.5,52,17,47.1,28.1C42.2,39.1,40.3,52.7,32.9,60.1C25.5,67.5,12.8,68.6,-0.6,69.7C-13.9,70.7,-27.9,71.6,-41.6,67.8C-55.2,64.1,-68.6,55.7,-76.7,43.6C-84.7,31.6,-87.5,15.8,-83,2.6C-78.6,-10.7,-67.1,-21.4,-59.8,-34.8C-52.5,-48.3,-49.6,-64.6,-40.4,-74.9C-31.1,-85.2,-15.6,-89.5,-2,-86C11.6,-82.6,23.1,-71.3,30.9,-60.2Z" transform="translate(100 100)" />
</svg>